<?xml version="1.0" encoding="UTF-8"?>
<svg version="1.1" xmlns="http://www.w3.org/2000/svg" width="96" height="96">
<path d="M0 0 C31.68 0 63.36 0 96 0 C96 31.68 96 63.36 96 96 C64.32 96 32.64 96 0 96 C0 64.32 0 32.64 0 0 Z " fill="#6D3F34" transform="translate(0,0)"/>
<path d="M0 0 C11.22 0 22.44 0 34 0 C33.67 1.65 33.34 3.3 33 5 C33.84681777 7.25552668 33.84681777 7.25552668 36.4375 7.9375 C39 9 39 9 41 12 C33.41 12 25.82 12 18 12 C17.67 13.65 17.34 15.3 17 17 C18.0725 17.433125 19.145 17.86625 20.25 18.3125 C23.16272646 19.55321513 25.56036166 20.95070379 28 23 C27.5 24.8125 27.5 24.8125 26 27 C22.2368768 28.94765861 18.15146774 29.96930978 14.0625 31 C13.051875 31.33 12.04125 31.66 11 32 C10.67 32.99 10.34 33.98 10 35 C12.64 35 15.28 35 18 35 C18.66 36.65 19.32 38.3 20 40 C23.81888113 40.55692017 25.88681561 40.7868706 29.10546875 38.51171875 C30.46572153 37.27906942 31.80082292 36.01792273 33.10546875 34.7265625 C34.98395527 33.01462221 36.68496475 32.01635694 39 31 C39 28.69 39 26.38 39 24 C40.65 23.67 42.3 23.34 44 23 C46.16032426 27.32064853 45.00652204 33.14526498 44.875 37.875 C44.8646875 39.07253906 44.854375 40.27007812 44.84375 41.50390625 C44.81023438 42.65503906 44.77671875 43.80617187 44.7421875 44.9921875 C44.7201123 46.04776855 44.69803711 47.10334961 44.67529297 48.19091797 C43.77454926 51.93782942 42.18153882 52.94570874 39 55 C35.88769837 56.35866975 32.74034253 57.50348611 29.546875 58.65625 C26.83552502 59.7346941 26.83552502 59.7346941 26.140625 62.15625 C26.07101563 63.06890625 26.07101563 63.06890625 26 64 C27.051875 63.773125 28.10375 63.54625 29.1875 63.3125 C33.43905659 62.96401175 34.66260298 63.52079078 38 66 C38.99 66.495 38.99 66.495 40 67 C39.6740051 70.04261908 39.02104739 70.9801219 36.75 73.125 C34 75 34 75 31.375 76 C28.57285115 77.17985215 27.71180508 78.55456417 26 81 C25.34 81 24.68 81 24 81 C23.34 82.65 22.68 84.3 22 86 C26.01508916 87.33836305 28.04120083 86.36510316 32 85 C32.86625 84.46375 33.7325 83.9275 34.625 83.375 C37.32767606 81.81029281 38.93007415 81.7368635 42 82 C42.33 82.66 42.66 83.32 43 84 C41.37633534 87.24732932 38.24612161 87.70155136 35 89 C35 91.31 35 93.62 35 96 C23.45 96 11.9 96 0 96 C0 64.32 0 32.64 0 0 Z " fill="#BD806F" transform="translate(0,0)"/>
<path d="M0 0 C-3.38121547 3.88213628 -3.38121547 3.88213628 -6.625 4.5 C-9.12943151 4.74259896 -9.12943151 4.74259896 -10.25 6.8125 C-11.52939299 10.54406288 -12.10309889 13.66858018 -12 17.625 C-11.94633747 21.25795338 -12.16186217 24.70971851 -12.625 28.3125 C-13.07397322 32.18944439 -12.68055304 34.4288248 -11 38 C-11.11364923 41.52312618 -13.13745734 44.16715595 -15.390625 46.8046875 C-18.40879402 49.04633731 -21.3891372 48.36720639 -25 48 C-25 49.98 -25 51.96 -25 54 C-23.9275 54.268125 -22.855 54.53625 -21.75 54.8125 C-16.27074236 56.54759825 -16.27074236 56.54759825 -14 59 C-13.6875 61.625 -13.6875 61.625 -14 64 C-15.57466224 65.57466224 -17.45382461 65.42202789 -19.625 65.75 C-24.61929142 66.72309976 -28.50042563 68.20105202 -32 72 C-32.72351427 73.98014432 -33.40265389 75.97821315 -34 78 C-36.125 78.875 -36.125 78.875 -38 79 C-38.33 78.01 -38.66 77.02 -39 76 C-37.33333333 74.33333333 -35.66666667 72.66666667 -34 71 C-33.21625 70.154375 -32.4325 69.30875 -31.625 68.4375 C-29.44715106 66.4152117 -27.86985354 65.29295032 -25.3125 63.9375 C-22.15077788 62.08819083 -21.09062421 61.3930531 -20 58 C-20.969375 57.690625 -21.93875 57.38125 -22.9375 57.0625 C-26 56 -26 56 -27 55 C-29.33297433 54.95907063 -31.66705225 54.95758277 -34 55 C-33.86328125 52.6640625 -33.86328125 52.6640625 -33 50 C-30.41796875 48.5234375 -30.41796875 48.5234375 -27.1875 47.375 C-21.63987852 45.44094332 -21.63987852 45.44094332 -17 42 C-16.35527702 39.00804403 -16.35527702 39.00804403 -16.390625 35.58203125 C-16.35839844 34.32841797 -16.32617188 33.07480469 -16.29296875 31.78320312 C-16.27878906 30.47287109 -16.26460937 29.16253906 -16.25 27.8125 C-16.22184019 26.47717464 -16.19191271 25.1418853 -16.16015625 23.80664062 C-16.08934884 20.53769851 -16.03670367 17.26947421 -16 14 C-17.65 14.33 -19.3 14.66 -21 15 C-20.7525 16.5159375 -20.7525 16.5159375 -20.5 18.0625 C-21.14511776 23.14280235 -22.98449893 24.35067693 -26.859375 27.421875 C-27.56578125 27.94265625 -28.2721875 28.4634375 -29 29 C-29.6703125 29.55816406 -30.340625 30.11632812 -31.03125 30.69140625 C-33.96203516 32.63944797 -36.57655542 32.19750642 -40 32 C-40.66 30.35 -41.32 28.7 -42 27 C-44.64 26.67 -47.28 26.34 -50 26 C-49.7578125 24.09765625 -49.7578125 24.09765625 -49 22 C-47.1796875 21.05859375 -47.1796875 21.05859375 -44.875 20.4375 C-40.73946681 19.23323273 -36.93101403 17.75641052 -33 16 C-33 15.34 -33 14.68 -33 14 C-38.42501544 10.86020796 -38.42501544 10.86020796 -44 8 C-43.34 6.35 -42.68 4.7 -42 3 C-35.07 3 -28.14 3 -21 3 C-21 5.31 -21 7.62 -21 10 C-20.071875 10.4640625 -20.071875 10.4640625 -19.125 10.9375 C-17.75 11.625 -16.375 12.3125 -15 13 C-14.62875 11.783125 -14.2575 10.56625 -13.875 9.3125 C-11.39431559 2.75557361 -7.3808348 -0.87867081 0 0 Z " fill="#996055" transform="translate(60,9)"/>
<path d="M0 0 C11.22 0 22.44 0 34 0 C33.67 1.65 33.34 3.3 33 5 C33.84681777 7.25552668 33.84681777 7.25552668 36.4375 7.9375 C39 9 39 9 41 12 C33.41 12 25.82 12 18 12 C17.67 13.65 17.34 15.3 17 17 C18.0725 17.433125 19.145 17.86625 20.25 18.3125 C23.16272646 19.55321513 25.56036166 20.95070379 28 23 C27.5 24.8125 27.5 24.8125 26 27 C22.2368768 28.94765861 18.15146774 29.96930978 14.0625 31 C13.051875 31.33 12.04125 31.66 11 32 C10.67 32.99 10.34 33.98 10 35 C12.64 35 15.28 35 18 35 C18.66 36.65 19.32 38.3 20 40 C25.71658336 40.45732667 28.48649253 39.52273754 33 36 C31.51014431 39.79235994 29.41341953 41.80565887 26 44 C23.8125 43.625 23.8125 43.625 22 43 C21.34 43.66 20.68 44.32 20 45 C20 44.01 20 43.02 20 42 C19.01 42 18.02 42 17 42 C16.7525 41.0409375 16.7525 41.0409375 16.5 40.0625 C15.218214 37.83880759 15.218214 37.83880759 13.0859375 37.51171875 C11.06424845 37.2724022 9.03158061 37.13106972 7 37 C6.75 31.375 6.75 31.375 9 28 C11.3828125 27.26953125 11.3828125 27.26953125 14.125 26.8125 C15.03507813 26.65394531 15.94515625 26.49539062 16.8828125 26.33203125 C17.58148437 26.22246094 18.28015625 26.11289062 19 26 C19.33 24.68 19.66 23.36 20 22 C18.41705218 21.94562393 16.83355744 21.90703729 15.25 21.875 C14.36828125 21.85179688 13.4865625 21.82859375 12.578125 21.8046875 C9.79804307 22.01529977 8.29751682 22.4368946 6 24 C3.30480319 27.87594969 1.58555377 32.31556988 1 37 C0.67 37 0.34 37 0 37 C0 24.79 0 12.58 0 0 Z " fill="#AA716A" transform="translate(0,0)"/>
<path d="M0 0 C2.24940295 -0.08119503 4.49964871 -0.13927819 6.75 -0.1875 C8.00296875 -0.22230469 9.2559375 -0.25710938 10.546875 -0.29296875 C14.17592805 0.01492602 15.55133893 0.3537697 18 3 C19.05034346 7.92853469 19.32281799 12.06949659 18 17 C17.34 17.33 16.68 17.66 16 18 C15.525625 18.825 15.05125 19.65 14.5625 20.5 C13 23 13 23 10 24 C10 24.66 10 25.32 10 26 C7.1875 26.25 7.1875 26.25 4 26 C3.2884375 25.0409375 3.2884375 25.0409375 2.5625 24.0625 C1.04388337 21.58604367 1.04388337 21.58604367 -2.6875 21.25 C-3.780625 21.1675 -4.87375 21.085 -6 21 C-5.37890625 19.12890625 -5.37890625 19.12890625 -4 17 C-1.21484375 15.83984375 -1.21484375 15.83984375 2.0625 14.9375 C5.27470943 14.10598145 5.27470943 14.10598145 8 13 C8.33 12.01 8.66 11.02 9 10 C3.57498456 6.86020796 3.57498456 6.86020796 -2 4 C-1.34 2.68 -0.68 1.36 0 0 Z " fill="#61302E" transform="translate(18,13)"/>
<path d="M0 0 C0.89203125 0.11085938 1.7840625 0.22171875 2.703125 0.3359375 C3.37859375 0.43132813 4.0540625 0.52671875 4.75 0.625 C4.42 1.945 4.09 3.265 3.75 4.625 C0.45 5.285 -2.85 5.945 -6.25 6.625 C-6.91 9.595 -7.57 12.565 -8.25 15.625 C-6.23177083 15.52734375 -4.21354167 15.4296875 -2.1953125 15.33203125 C-1.55335937 15.42871094 -0.91140625 15.52539062 -0.25 15.625 C1.9019437 18.85291555 1.95086443 19.90900809 1.75 23.625 C0.76 23.625 -0.23 23.625 -1.25 23.625 C-1.58 21.975 -1.91 20.325 -2.25 18.625 C-7.0397321 18.39071687 -7.0397321 18.39071687 -11.25 20.625 C-12.38994755 24.46805671 -12.53068798 28.4518728 -12.8125 32.4375 C-12.89628906 33.59894531 -12.98007813 34.76039062 -13.06640625 35.95703125 C-13.15728516 37.27767578 -13.15728516 37.27767578 -13.25 38.625 C-15.33316208 35.50025688 -15.50530414 34.76087376 -15.515625 31.203125 C-15.51820312 30.34203125 -15.52078125 29.4809375 -15.5234375 28.59375 C-15.51570312 27.6965625 -15.50796875 26.799375 -15.5 25.875 C-15.50773438 24.99328125 -15.51546875 24.1115625 -15.5234375 23.203125 C-15.49877866 14.91775575 -13.88056352 8.57084528 -9.25 1.625 C-6.04024497 -0.5495743 -3.7802106 -0.49739613 0 0 Z " fill="#C18375" transform="translate(15.25,21.375)"/>
<path d="M0 0 C0.66 0.33 1.32 0.66 2 1 C1.67 1.99 1.34 2.98 1 4 C0.89833884 5.59158327 0.84535352 7.18656332 0.82421875 8.78125 C0.80037109 9.70550781 0.77652344 10.62976563 0.75195312 11.58203125 C0.70898931 13.5271203 0.67773591 15.47250332 0.65820312 17.41796875 C0.63048828 18.34222656 0.60277344 19.26648438 0.57421875 20.21875 C0.55963623 21.06373047 0.54505371 21.90871094 0.5300293 22.77929688 C0 25 0 25 -1.81323242 26.77539062 C-4.99942476 28.55968679 -7.41760626 28.39080659 -11 28 C-13.55593471 26.23728641 -15.01933674 23.94198977 -16 21 C-14.68434881 17.1712187 -12.35919446 15.60138836 -9.125 13.3125 C-4.15682529 9.50021565 -1.84147544 5.93669693 0 0 Z " fill="#DC9B8E" transform="translate(42,26)"/>
<path d="M0 0 C1.93419584 0.03323361 3.86807794 0.09285999 5.80078125 0.17578125 C6.78884766 0.19833984 7.77691406 0.22089844 8.79492188 0.24414062 C11.23589684 0.30310137 13.67382993 0.38533077 16.11328125 0.48828125 C13.81634863 7.93896321 13.81634863 7.93896321 11.2734375 9.92578125 C4.84882993 11.64858105 -1.25478412 11.79126304 -7.88671875 11.48828125 C-8.11092664 8.27463476 -7.95826626 5.73382693 -7.0546875 2.6328125 C-4.43495248 0.04139894 -3.58838209 0.13319465 0 0 Z " fill="#EAB4A7" transform="translate(17.88671875,-0.48828125)"/>
<path d="M0 0 C0.625 2.5625 0.625 2.5625 1 5 C2.0725 5.268125 3.145 5.53625 4.25 5.8125 C9.72925764 7.54759825 9.72925764 7.54759825 12 10 C12.3125 12.625 12.3125 12.625 12 15 C10.42533776 16.57466224 8.54617539 16.42202789 6.375 16.75 C1.38070858 17.72309976 -2.50042563 19.20105202 -6 23 C-6.72351427 24.98014432 -7.40265389 26.97821315 -8 29 C-10.125 29.875 -10.125 29.875 -12 30 C-12.33 29.01 -12.66 28.02 -13 27 C-11.33333333 25.33333333 -9.66666667 23.66666667 -8 22 C-7.21625 21.154375 -6.4325 20.30875 -5.625 19.4375 C-3.44715106 17.4152117 -1.86985354 16.29295032 0.6875 14.9375 C3.84922212 13.08819083 4.90937579 12.3930531 6 9 C5.030625 8.690625 4.06125 8.38125 3.0625 8.0625 C0 7 0 7 -1 6 C-3.33297433 5.95907063 -5.66705225 5.95758277 -8 6 C-7.8125 3.625 -7.8125 3.625 -7 1 C-2.77108434 -1.38554217 -2.77108434 -1.38554217 0 0 Z " fill="#86524A" transform="translate(34,58)"/>
<path d="M0 0 C3.63 0 7.26 0 11 0 C10.01 2.64 9.02 5.28 8 8 C7.34 8 6.68 8 6 8 C3.62207323 13.19180678 3.21568029 18.39360891 2.5625 24.015625 C2.376875 25.00046875 2.19125 25.9853125 2 27 C1.34 27.33 0.68 27.66 0 28 C0 18.76 0 9.52 0 0 Z " fill="#4C2E29" transform="translate(0,0)"/>
<path d="M0 0 C1.91595968 -0.08133791 3.83291932 -0.13934367 5.75 -0.1875 C7.35101563 -0.23970703 7.35101563 -0.23970703 8.984375 -0.29296875 C12.30027855 0.02917214 13.59016673 0.77148914 16 3 C15.67 4.65 15.34 6.3 15 8 C13.68 8 12.36 8 11 8 C11 8.99 11 9.98 11 11 C7.7 11 4.4 11 1 11 C1.33 9.68 1.66 8.36 2 7 C1.411438 4.645752 0.75407101 2.30657014 0 0 Z " fill="#4E241B" transform="translate(65,26)"/>
<path d="M0 0 C0.66 0.33 1.32 0.66 2 1 C1.690625 1.53625 1.38125 2.0725 1.0625 2.625 C-0.17827439 5.3984957 -0.5909675 8.00042837 -1 11 C7.65422272 10.57534271 15.64969407 9.90020395 23 5 C23 5.66 23 6.32 23 7 C23.78375 7.268125 24.5675 7.53625 25.375 7.8125 C28 9 28 9 30 12 C29.21874756 12.0093457 28.43749512 12.01869141 27.63256836 12.02832031 C24.06692236 12.08225312 20.50255585 12.1658581 16.9375 12.25 C15.70837891 12.26417969 14.47925781 12.27835938 13.21289062 12.29296875 C6.27744201 12.47990807 1.64775032 12.86632743 -4 17 C-4.66 17.33 -5.32 17.66 -6 18 C-5.41347648 13.51006131 -4.2356462 9.77456816 -2.4375 5.625 C-1.98246094 4.56539063 -1.52742187 3.50578125 -1.05859375 2.4140625 C-0.70925781 1.61742188 -0.35992187 0.82078125 0 0 Z " fill="#9F6D65" transform="translate(11,0)"/>
<path d="M0 0 C0.66 0.33 1.32 0.66 2 1 C0.56116838 4.70322236 -1.03365915 5.84622588 -4.5625 7.5625 C-6.97229114 8.68614208 -6.97229114 8.68614208 -9 10 C-9.33 10.99 -9.66 11.98 -10 13 C-7.36 13 -4.72 13 -2 13 C-1.34 14.65 -0.68 16.3 0 18 C5.71658336 18.45732667 8.48649253 17.52273754 13 14 C11.51014431 17.79235994 9.41341953 19.80565887 6 22 C3.8125 21.625 3.8125 21.625 2 21 C1.34 21.66 0.68 22.32 0 23 C0 22.01 0 21.02 0 20 C-0.99 20 -1.98 20 -3 20 C-3.165 19.360625 -3.33 18.72125 -3.5 18.0625 C-4.781786 15.83880759 -4.781786 15.83880759 -6.9140625 15.51171875 C-8.93575155 15.2724022 -10.96841939 15.13106972 -13 15 C-13.25 9.375 -13.25 9.375 -11 6 C-8.6171875 5.26953125 -8.6171875 5.26953125 -5.875 4.8125 C-4.50988281 4.57466797 -4.50988281 4.57466797 -3.1171875 4.33203125 C-2.06917969 4.16767578 -2.06917969 4.16767578 -1 4 C-0.67 2.68 -0.34 1.36 0 0 Z " fill="#A76D63" transform="translate(20,22)"/>
<path d="M0 0 C1.32 0.33 2.64 0.66 4 1 C4 5.62 4 10.24 4 15 C1.03 15 -1.94 15 -5 15 C-4.67 12.03 -4.34 9.06 -4 6 C-3.34 6 -2.68 6 -2 6 C-1.7834375 5.071875 -1.7834375 5.071875 -1.5625 4.125 C-1 2 -1 2 0 0 Z " fill="#664C46" transform="translate(92,81)"/>
<path d="M0 0 C3 1 3 1 4.1875 2.8125 C5 5 5 5 5 9 C5.99 9.33 6.98 9.66 8 10 C7.67 11.98 7.34 13.96 7 16 C7.66 16 8.32 16 9 16 C9 16.66 9 17.32 9 18 C6.03 18 3.06 18 0 18 C0 12.06 0 6.12 0 0 Z " fill="#906E60" transform="translate(0,78)"/>
<path d="M0 0 C0.66 0.99 1.32 1.98 2 3 C4.13255104 3.46885852 4.13255104 3.46885852 6.5 3.5 C8.90625 3.59375 8.90625 3.59375 11 4 C13.1519437 7.22791555 13.20086443 8.28400809 13 12 C12.01 12 11.02 12 10 12 C9.67 10.35 9.34 8.7 9 7 C4.2102679 6.76571687 4.2102679 6.76571687 0 9 C-1.21284876 12.05429073 -1.21284876 12.05429073 -2 15 C-2.33 15 -2.66 15 -3 15 C-2.88623383 12.87436897 -2.75864369 10.7494739 -2.625 8.625 C-2.55539063 7.44164062 -2.48578125 6.25828125 -2.4140625 5.0390625 C-2 2 -2 2 0 0 Z " fill="#D69481" transform="translate(4,33)"/>
<path d="M0 0 C1.4783226 2.95664519 1.06032783 5.74229737 1 9 C0.34 9 -0.32 9 -1 9 C-1 14.94 -1 20.88 -1 27 C-1.33 27 -1.66 27 -2 27 C-2 19.33333333 -2 11.66666667 -2 4 C-2.391875 5.2375 -2.78375 6.475 -3.1875 7.75 C-4.64622305 11.70538366 -6.41021904 13.67149343 -10 16 C-9.55935268 13.53237502 -9.11760867 12.14211048 -7.5 10.1875 C-5.4858828 7.25024575 -5.46051206 4.48673419 -5 1 C-3 0 -3 0 0 0 Z " fill="#C28475" transform="translate(44,23)"/>
<path d="M0 0 C6.93 0 13.86 0 21 0 C21 2.31 21 4.62 21 7 C21.66 7 22.32 7 23 7 C22.67 7.99 22.34 8.98 22 10 C21.34 10 20.68 10 20 10 C19.67 12.64 19.34 15.28 19 18 C18.67 18 18.34 18 18 18 C18 13.38 18 8.76 18 4 C13.82326657 1.91163328 11.34788582 1.6304381 6.75 1.375 C4.85507812 1.26285156 4.85507812 1.26285156 2.921875 1.1484375 C1.47554687 1.07496094 1.47554687 1.07496094 0 1 C0 0.67 0 0.34 0 0 Z " fill="#86514A" transform="translate(18,12)"/>
<path d="M0 0 C0.66 0.33 1.32 0.66 2 1 C1.67 1.99 1.34 2.98 1 4 C2.60875 4.6496875 2.60875 4.6496875 4.25 5.3125 C7.16272646 6.55321513 9.56036166 7.95070379 12 10 C11.5 11.8125 11.5 11.8125 10 14 C6.68261666 15.81213892 3.53336471 17.28916393 -0.2578125 16.57421875 C-1.12019531 16.28998047 -1.12019531 16.28998047 -2 16 C0.31 14.68 2.62 13.36 5 12 C4.67 10.35 4.34 8.7 4 7 C2.68 6.67 1.36 6.34 0 6 C-0.38218767 4.34385343 -0.71395102 2.67542976 -1 1 C-0.67 0.67 -0.34 0.34 0 0 Z " fill="#89544E" transform="translate(16,13)"/>
<path d="M0 0 C0.33 0 0.66 0 1 0 C0.96519531 0.99580078 0.96519531 0.99580078 0.9296875 2.01171875 C0.82921458 6.92771501 0.99385547 10.45273906 3 15 C2.88635077 18.52312618 0.86254266 21.16715595 -1.390625 23.8046875 C-4.40879402 26.04633731 -7.3891372 25.36720639 -11 25 C-11.33 26.65 -11.66 28.3 -12 30 C-13.125 26.25 -13.125 26.25 -12 24 C-9.36 24 -6.72 24 -4 24 C-3.690625 23.360625 -3.38125 22.72125 -3.0625 22.0625 C-2 20 -2 20 -1 19 C-0.92570175 17.66857536 -0.91666667 16.33333333 -0.9375 15 C-0.94523437 14.195625 -0.95296875 13.39125 -0.9609375 12.5625 C-0.97382812 11.716875 -0.98671875 10.87125 -1 10 C-1.02540554 8.33339676 -1.04647385 6.66671982 -1.0625 5 C-1.07410156 4.2575 -1.08570313 3.515 -1.09765625 2.75 C-1 1 -1 1 0 0 Z " fill="#864E41" transform="translate(46,32)"/>
<path d="M0 0 C0.66 0.33 1.32 0.66 2 1 C1.01 2.485 1.01 2.485 0 4 C1.093125 3.9175 2.18625 3.835 3.3125 3.75 C4.529375 3.8325 5.74625 3.915 7 4 C8.04625409 5.29735507 9.04701223 6.63266972 10 8 C13.10197397 8.80946422 13.10197397 8.80946422 16 9 C16 8.34 16 7.68 16 7 C16.61875 6.54625 17.2375 6.0925 17.875 5.625 C20.13442278 3.89720611 20.92750301 2.59186772 22 0 C22.66 0.33 23.32 0.66 24 1 C21.45648348 5.14498989 19.20141101 8.45961195 15 11 C11.1875 11.25 11.1875 11.25 8 11 C7.34 9.35 6.68 7.7 6 6 C3.36 5.67 0.72 5.34 -2 5 C-1.125 1.125 -1.125 1.125 0 0 Z " fill="#935347" transform="translate(12,30)"/>
<path d="M0 0 C0.66 0.33 1.32 0.66 2 1 C1.690625 1.53625 1.38125 2.0725 1.0625 2.625 C-0.17827439 5.3984957 -0.5909675 8.00042837 -1 11 C1.64 11 4.28 11 7 11 C6.484375 11.2475 5.96875 11.495 5.4375 11.75 C3.37973165 12.80526582 1.37972777 13.91156026 -0.625 15.0625 C-2.39573392 16.07903244 -4.17378275 17.08689137 -6 18 C-5.41347648 13.51006131 -4.2356462 9.77456816 -2.4375 5.625 C-1.98246094 4.56539063 -1.52742187 3.50578125 -1.05859375 2.4140625 C-0.70925781 1.61742188 -0.35992187 0.82078125 0 0 Z " fill="#B07E74" transform="translate(11,0)"/>
<path d="M0 0 C0.66 0 1.32 0 2 0 C1.34 1.98 0.68 3.96 0 6 C-0.66 6 -1.32 6 -2 6 C-2 8.97 -2 11.94 -2 15 C-0.68 14.67 0.64 14.34 2 14 C0.48686781 16.52188699 -1.02197514 19.0338079 -2.625 21.5 C-4.02642759 24.04805016 -4.59109554 26.13766876 -5 29 C-5.33 29 -5.66 29 -6 29 C-6.23655974 23.20428629 -5.72753429 18.58908153 -4 13 C-3.83141391 11.62760389 -3.68606009 10.25218019 -3.5625 8.875 C-3.01227173 5.08453855 -2.33898117 2.9938959 0 0 Z " fill="#9E695E" transform="translate(6,8)"/>
<path d="M0 0 C-3.38121547 3.88213628 -3.38121547 3.88213628 -6.625 4.5 C-9.12943151 4.74259896 -9.12943151 4.74259896 -10.25 6.8125 C-11.5984362 10.74543891 -12.11744417 14.07424345 -12.0625 18.25 C-12.05347656 19.14203125 -12.04445312 20.0340625 -12.03515625 20.953125 C-12.02355469 21.62859375 -12.01195312 22.3040625 -12 23 C-12.33 23 -12.66 23 -13 23 C-14.75985768 9.03591188 -14.75985768 9.03591188 -12.3125 5.3125 C-8.05452196 1.05452196 -6.22712195 -0.4245765 0 0 Z " fill="#845348" transform="translate(60,9)"/>
<path d="M0 0 C3.3 0.33 6.6 0.66 10 1 C10.33 2.32 10.66 3.64 11 5 C17.40141012 5.51211281 20.98010898 5.11888494 26 1 C24.51014431 4.79235994 22.41341953 6.80565887 19 9 C16.8125 8.625 16.8125 8.625 15 8 C14.34 8.66 13.68 9.32 13 10 C13 9.01 13 8.02 13 7 C12.01 7 11.02 7 10 7 C9.835 6.360625 9.67 5.72125 9.5 5.0625 C8.218214 2.83880759 8.218214 2.83880759 6.0859375 2.51171875 C4.06424845 2.2724022 2.03158061 2.13106972 0 2 C0 1.34 0 0.68 0 0 Z " fill="#B87466" transform="translate(7,35)"/>
<path d="M0 0 C0.33 0 0.66 0 1 0 C1 4.29 1 8.58 1 13 C-0.98 13 -2.96 13 -5 13 C-3.22454308 3.22454308 -3.22454308 3.22454308 0 0 Z " fill="#F7F6F6" transform="translate(95,83)"/>
<path d="M0 0 C-2 2 -2 2 -4.5625 2.875 C-7.18447843 3.7409707 -7.18447843 3.7409707 -7.8125 6.125 C-7.874375 6.74375 -7.93625 7.3625 -8 8 C-4.535 7.505 -4.535 7.505 -1 7 C-4 9 -4 9 -6.125 9.4375 C-6.74375 9.623125 -7.3625 9.80875 -8 10 C-8.33 10.99 -8.66 11.98 -9 13 C-9.33 13 -9.66 13 -10 13 C-10 10.69 -10 8.38 -10 6 C-10.66 6 -11.32 6 -12 6 C-9.92191188 -0.23426437 -6.0915195 -0.35143382 0 0 Z " fill="#AC6E5D" transform="translate(34,56)"/>
<path d="M0 0 C0.66 0.33 1.32 0.66 2 1 C1.37351562 1.43570313 0.74703125 1.87140625 0.1015625 2.3203125 C-4.79958945 5.89181439 -7.4204482 7.96898405 -9 14 C-11.125 14.875 -11.125 14.875 -13 15 C-13.33 14.01 -13.66 13.02 -14 12 C-12.33333333 10.33333333 -10.66666667 8.66666667 -9 7 C-7.7315625 5.6696875 -7.7315625 5.6696875 -6.4375 4.3125 C-4.29869016 2.28337272 -2.76842824 0.95463043 0 0 Z " fill="#965F57" transform="translate(35,73)"/>
<path d="M0 0 C2.29109597 -0.08075665 4.58299267 -0.13907731 6.875 -0.1875 C8.78925781 -0.23970703 8.78925781 -0.23970703 10.7421875 -0.29296875 C11.81726563 -0.19628906 12.89234375 -0.09960938 14 0 C14.66 0.99 15.32 1.98 16 3 C11.71 2.34 7.42 1.68 3 1 C3 1.99 3 2.98 3 4 C5.475 4.99 5.475 4.99 8 6 C8 6.66 8 7.32 8 8 C8.66 8.33 9.32 8.66 10 9 C6.98782888 8.35550393 4.48344164 7.34977818 1.75 5.9375 C1.04359375 5.57527344 0.3371875 5.21304687 -0.390625 4.83984375 C-0.92171875 4.56269531 -1.4528125 4.28554688 -2 4 C-1.34 2.68 -0.68 1.36 0 0 Z " fill="#6F3E36" transform="translate(18,13)"/>
<path d="M0 0 C3.3 0 6.6 0 10 0 C10 1.32 10 2.64 10 4 C7.8125 5.1875 7.8125 5.1875 5 6 C2.1875 4.8125 2.1875 4.8125 0 3 C0 2.01 0 1.02 0 0 Z " fill="#5C2B24" transform="translate(21,14)"/>
<path d="M0 0 C2.31 0 4.62 0 7 0 C6.51452795 4.36924844 5.21218243 6.07983415 2 9 C1.34 9.99 0.68 10.98 0 12 C0 8.04 0 4.08 0 0 Z " fill="#2A181A" transform="translate(0,0)"/>
<path d="M0 0 C0.66 0.33 1.32 0.66 2 1 C2 2.98 2 4.96 2 7 C2.99 7 3.98 7 5 7 C5 7.66 5 8.32 5 9 C7.97 8.34 10.94 7.68 14 7 C11.54953627 10.13659357 10.47006326 10.94227293 6.4375 11.4375 C3 11 3 11 1.1875 9.75 C-1.31034483 6.06896552 -1.31034483 6.06896552 -2 4 C-1.125 1.75 -1.125 1.75 0 0 Z " fill="#C48980" transform="translate(28,43)"/>
<path d="M0 0 C2 1 2 1 3.125 3.625 C4.05654649 7.21810788 4.14783375 10.30415624 4 14 C2.68 13.34 1.36 12.68 0 12 C0 8.04 0 4.08 0 0 Z " fill="#593D30" transform="translate(0,81)"/>
<path d="M0 0 C2.5 1.0625 2.5 1.0625 5 3 C5.3125 6.6875 5.3125 6.6875 5 10 C4.67 10 4.34 10 4 10 C3.67 7.69 3.34 5.38 3 3 C1.35 3.33 -0.3 3.66 -2 4 C-1.896875 5.093125 -1.79375 6.18625 -1.6875 7.3125 C-1.8421875 9.1378125 -1.8421875 9.1378125 -2 11 C-4.5 12.9375 -4.5 12.9375 -7 14 C-6.71125 13.505 -6.4225 13.01 -6.125 12.5 C-4.83875783 9.64168408 -4.25621249 6.871773 -3.66015625 3.8046875 C-3 2 -3 2 0 0 Z " fill="#A16356" transform="translate(41,20)"/>
<path d="M0 0 C0.40729228 2.32156597 0.74438677 4.6568787 1 7 C-0.670625 6.7525 -0.670625 6.7525 -2.375 6.5 C-5.72032033 5.9544542 -5.72032033 5.9544542 -8 6 C-7.8125 3.625 -7.8125 3.625 -7 1 C-2.77108434 -1.38554217 -2.77108434 -1.38554217 0 0 Z " fill="#9C6152" transform="translate(34,58)"/>
<path d="M0 0 C-0.33 0.66 -0.66 1.32 -1 2 C-3.29296875 2.34375 -3.29296875 2.34375 -6.1875 2.5 C-11.22922308 2.86667077 -15.45054789 3.72527394 -20 6 C-20.33 5.01 -20.66 4.02 -21 3 C-13.93924474 -0.32270836 -7.7276932 -0.31806054 0 0 Z " fill="#57332E" transform="translate(80,10)"/>
<path d="M0 0 C0.33 0 0.66 0 1 0 C0.67 3.3 0.34 6.6 0 10 C2.97 10 5.94 10 9 10 C9 10.33 9 10.66 9 11 C5.04 11 1.08 11 -3 11 C-3 4.08 -3 4.08 0 0 Z " fill="#CA968C" transform="translate(13,0)"/>
<path d="M0 0 C0.33 0.99 0.66 1.98 1 3 C-0.375 4.5 -0.375 4.5 -2 6 C-2.66 6 -3.32 6 -4 6 C-4 6.66 -4 7.32 -4 8 C-6.8125 8.3125 -6.8125 8.3125 -10 8 C-11.875 5.5 -11.875 5.5 -13 3 C-12.09507813 3.17789063 -12.09507813 3.17789063 -11.171875 3.359375 C-8.73414325 3.75255754 -6.47079212 4.0467792 -4 4 C-1.4094273 2.24905348 -1.4094273 2.24905348 0 0 Z " fill="#7B3D36" transform="translate(32,31)"/>
<path d="M0 0 C1.32 0.33 2.64 0.66 4 1 C3.01 1.495 3.01 1.495 2 2 C2.27034634 4.43717258 2.27034634 4.43717258 3 7 C3.99 7.66 4.98 8.32 6 9 C2.625 9.125 2.625 9.125 -1 9 C-1.66 8.34 -2.32 7.68 -3 7 C-2.625 4.375 -2.625 4.375 -2 2 C-1.34 2 -0.68 2 0 2 C0 1.34 0 0.68 0 0 Z " fill="#9F655D" transform="translate(14,12)"/>
<path d="M0 0 C1.32 0.33 2.64 0.66 4 1 C2.50259067 5.84455959 2.50259067 5.84455959 1 8 C-2.6875 8.9375 -2.6875 8.9375 -6 9 C-4.73046875 7.53515625 -3.4609375 6.0703125 -2.19140625 4.60546875 C-0.79128769 2.89287029 -0.79128769 2.89287029 0 0 Z " fill="#D39B8E" transform="translate(30,0)"/>
<path d="M0 0 C0.33 0.66 0.66 1.32 1 2 C0.67 2.66 0.34 3.32 0 4 C-2.3140622 4.73075648 -4.64828869 5.40138258 -7 6 C-7.66 4.68 -8.32 3.36 -9 2 C-5.86501708 0.14223235 -3.62528568 -0.20140476 0 0 Z " fill="#935E56" transform="translate(42,82)"/>
<path d="M0 0 C-1 2 -1 2 -4.59765625 3.2890625 C-6.08358282 3.74217015 -7.57200796 4.1871441 -9.0625 4.625 C-9.82111328 4.85445312 -10.57972656 5.08390625 -11.36132812 5.3203125 C-13.23881812 5.88710193 -15.11915633 6.44444077 -17 7 C-17 6.34 -17 5.68 -17 5 C-15.44148245 4.17988688 -13.87798284 3.36923787 -12.3125 2.5625 C-11.44238281 2.11003906 -10.57226562 1.65757813 -9.67578125 1.19140625 C-3.2972973 -1.64864865 -3.2972973 -1.64864865 0 0 Z " fill="#70473F" transform="translate(68,9)"/>
<path d="M0 0 C0.33 0.66 0.66 1.32 1 2 C2.64363134 2.72159424 4.31050386 3.39351421 6 4 C6 4.33 6 4.66 6 5 C-2.415 5.495 -2.415 5.495 -11 6 C-8.32046159 3.32046159 -5.60334255 3.02952644 -2 2 C-1.34 1.34 -0.68 0.68 0 0 Z " fill="#B48075" transform="translate(33,5)"/>
<path d="M0 0 C-1.62339805 1.70884005 -3.29319053 3.37446717 -5 5 C-5.66 5 -6.32 5 -7 5 C-7.66 6.32 -8.32 7.64 -9 9 C-9.66 8.67 -10.32 8.34 -11 8 C-10.34 6.68 -9.68 5.36 -9 4 C-8.34 4 -7.68 4 -7 4 C-6.8453125 3.0409375 -6.8453125 3.0409375 -6.6875 2.0625 C-6.460625 1.381875 -6.23375 0.70125 -6 0 C-3 -1 -3 -1 0 0 Z " fill="#AD7770" transform="translate(31,76)"/>
<path d="M0 0 C1.27875 -0.061875 2.5575 -0.12375 3.875 -0.1875 C4.95394531 -0.23970703 4.95394531 -0.23970703 6.0546875 -0.29296875 C6.69664063 -0.19628906 7.33859375 -0.09960938 8 0 C10.1519437 3.22791555 10.20086443 4.28400809 10 8 C9.01 8 8.02 8 7 8 C6 6 6 6 6 2 C3.03 1.505 3.03 1.505 0 1 C0 0.67 0 0.34 0 0 Z " fill="#CD8A7B" transform="translate(7,37)"/>
<path d="M0 0 C0.33 0 0.66 0 1 0 C1 4.62 1 9.24 1 14 C0.01 14.495 0.01 14.495 -1 15 C-1.22304441 13.25181409 -1.4278645 11.50129677 -1.625 9.75 C-1.74101563 8.77546875 -1.85703125 7.8009375 -1.9765625 6.796875 C-2.00112537 3.86570607 -1.5312717 2.45471036 0 0 Z " fill="#79473E" transform="translate(49,17)"/>
<path d="M0 0 C0.33 0 0.66 0 1 0 C1.19392201 5.52677733 0.7479503 9.75614911 -1 15 C-1.33 15 -1.66 15 -2 15 C-2.19392201 9.47322267 -1.7479503 5.24385089 0 0 Z " fill="#724742" transform="translate(2,13)"/>
<path d="M0 0 C0.598125 0.20625 1.19625 0.4125 1.8125 0.625 C0.8225 0.625 -0.1675 0.625 -1.1875 0.625 C-2.1775 3.595 -3.1675 6.565 -4.1875 9.625 C-6.1875 6.625 -6.1875 6.625 -6 4.0625 C-4.91665697 0.81247091 -3.53121625 -0.60535136 0 0 Z " fill="#7A4638" transform="translate(40.1875,86.375)"/>
<path d="M0 0 C1.32 0.66 2.64 1.32 4 2 C3.525625 2.556875 3.05125 3.11375 2.5625 3.6875 C0.87604004 6.18346074 0.41046893 8.0446237 0 11 C-1.56633048 8.51229865 -2.04100928 7.34447796 -1.6875 4.375 C-1 2 -1 2 0 0 Z " fill="#7A6560" transform="translate(92,81)"/>
<path d="M0 0 C7.50769231 -0.36923077 7.50769231 -0.36923077 10 1.5 C10.495 2.2425 10.495 2.2425 11 3 C10.67 3.66 10.34 4.32 10 5 C8.68 5 7.36 5 6 5 C6 4.01 6 3.02 6 2 C3.69 2 1.38 2 -1 2 C-0.67 1.34 -0.34 0.68 0 0 Z " fill="#824D4B" transform="translate(36,81)"/>
<path d="M0 0 C0 3 0 3 -1.3125 4.38671875 C-2.875 5.59114583 -4.4375 6.79557292 -6 8 C-8.475 7.01 -8.475 7.01 -11 6 C-11 5.67 -11 5.34 -11 5 C-9.1128125 4.5978125 -9.1128125 4.5978125 -7.1875 4.1875 C-4.00551199 3.40467463 -1.99755689 2.74664072 0 0 Z " fill="#AD6855" transform="translate(32,36)"/>
<path d="M0 0 C1.98 0.495 1.98 0.495 4 1 C2.515 4.465 2.515 4.465 1 8 C0.34 8 -0.32 8 -1 8 C-1.125 2.25 -1.125 2.25 0 0 Z " fill="#623D37" transform="translate(7,0)"/>
<path d="M0 0 C1.32 0 2.64 0 4 0 C3.67 1.65 3.34 3.3 3 5 C1.35 4.67 -0.3 4.34 -2 4 C-1.34 2.68 -0.68 1.36 0 0 Z " fill="#481A1C" transform="translate(22,29)"/>
<path d="M0 0 C0.66 0 1.32 0 2 0 C2.77916092 5.02125926 3.13016601 8.97703996 2 14 C1.01 14.33 0.02 14.66 -1 15 C-0.855625 14.484375 -0.71125 13.96875 -0.5625 13.4375 C1.06177204 6.70068752 1.06177204 6.70068752 0 0 Z " fill="#733D36" transform="translate(34,16)"/>
<path d="M0 0 C4.55384615 -0.36923077 4.55384615 -0.36923077 6.8125 1.5 C7.204375 1.995 7.59625 2.49 8 3 C7.67 3.99 7.34 4.98 7 6 C4.4375 7.1875 4.4375 7.1875 2 8 C2.99 6.02 3.98 4.04 5 2 C3.35 1.67 1.7 1.34 0 1 C0 0.67 0 0.34 0 0 Z " fill="#9B665D" transform="translate(35,65)"/>
<path d="M0 0 C0.66 0 1.32 0 2 0 C2.33 0.99 2.66 1.98 3 3 C2.01 4.485 2.01 4.485 1 6 C-2.625 6.6875 -2.625 6.6875 -6 7 C-5.67 6.34 -5.34 5.68 -5 5 C-2.4375 4.375 -2.4375 4.375 0 4 C0 2.68 0 1.36 0 0 Z " fill="#C18981" transform="translate(34,67)"/>
<path d="M0 0 C1.65 0 3.3 0 5 0 C5.66 1.32 6.32 2.64 7 4 C6.01 4.495 6.01 4.495 5 5 C4.34 4.34 3.68 3.68 3 3 C2.01 3.33 1.02 3.66 0 4 C0 2.68 0 1.36 0 0 Z " fill="#5E2D1F" transform="translate(48,55)"/>
<path d="M0 0 C2.31 0 4.62 0 7 0 C7.33 0.99 7.66 1.98 8 3 C5.36 3 2.72 3 0 3 C0 2.01 0 1.02 0 0 Z " fill="#613025" transform="translate(66,34)"/>
<path d="M0 0 C1.98 0.495 1.98 0.495 4 1 C3.75 2.875 3.75 2.875 3 5 C0.9375 6.25 0.9375 6.25 -1 7 C-0.67 4.69 -0.34 2.38 0 0 Z " fill="#B17971" transform="translate(36,66)"/>
<path d="M0 0 C0.66 0.33 1.32 0.66 2 1 C2 2.98 2 4.96 2 7 C2.99 7.33 3.98 7.66 5 8 C3.35 8 1.7 8 0 8 C-1.125 6.25 -1.125 6.25 -2 4 C-1.125 1.75 -1.125 1.75 0 0 Z " fill="#D49180" transform="translate(28,43)"/>
<path d="M0 0 C-1.32 0.33 -2.64 0.66 -4 1 C-4 1.66 -4 2.32 -4 3 C-3.01 3.33 -2.02 3.66 -1 4 C-3.31 4 -5.62 4 -8 4 C-7.25 2.0625 -7.25 2.0625 -6 0 C-3.40292416 -1.05506206 -2.5386068 -1.2693034 0 0 Z " fill="#743F3A" transform="translate(20,30)"/>
<path d="M0 0 C0.33 1.32 0.66 2.64 1 4 C3.64 4 6.28 4 9 4 C9 4.33 9 4.66 9 5 C5.37 5 1.74 5 -2 5 C-2 3.68 -2 2.36 -2 1 C-1.34 0.67 -0.68 0.34 0 0 Z " fill="#DEABA0" transform="translate(15,5)"/>
<path d="M0 0 C0.66 0 1.32 0 2 0 C1.65120368 3.25543229 0.97866739 4.01873107 -1.5625 6.25 C-2.366875 6.8275 -3.17125 7.405 -4 8 C-3.40312566 4.65750371 -2.26396123 2.53563658 0 0 Z " fill="#CD8879" transform="translate(38,31)"/>
<path d="M0 0 C2.5 1.0625 2.5 1.0625 5 3 C5.3125 6.6875 5.3125 6.6875 5 10 C4.67 10 4.34 10 4 10 C3.67 7.69 3.34 5.38 3 3 C1.68 3.33 0.36 3.66 -1 4 C-0.67 2.68 -0.34 1.36 0 0 Z " fill="#A56D5F" transform="translate(41,20)"/>
<path d="M0 0 C-0.33 0.99 -0.66 1.98 -1 3 C-5.455 3.495 -5.455 3.495 -10 4 C-9 2 -9 2 -6.125 0.875 C-3 0 -3 0 0 0 Z " fill="#7B4744" transform="translate(46,71)"/>
<path d="M0 0 C1.65 0 3.3 0 5 0 C5 0.99 5 1.98 5 3 C3.02 3 1.04 3 -1 3 C-0.67 2.01 -0.34 1.02 0 0 Z " fill="#9F6A66" transform="translate(37,82)"/>
</svg>
